<svg width="189" height="100" viewBox="0 0 189 100" fill="none" xmlns="http://www.w3.org/2000/svg">
<path d="M30.9655 34.8761C44 29.2265 39.431 11.9145 34 9C41.6437 9.89676 56.069 21.6265 64.7586 21.0885C73.4483 20.5504 80.3851 5.63864 83 2.5C85.4138 5.19027 92.569 29.8319 108.5 29.8319C124.431 29.8319 139.575 4.06932 144 2.5C144.402 6.87168 146.345 27.9487 151.655 29.8319C156.966 31.715 176.075 32.2758 180.5 32.5C178.69 35.5266 166.017 43.0142 165.534 47.3186C165.052 51.623 179.977 63.3481 184 64.8053C179.977 66.1504 163.121 61.846 155.879 64.8053C148.638 67.7646 152.862 85.4734 155.879 88.5C149.443 87.7153 134.155 75.2301 124.5 75.2301C114.845 75.2301 109.103 89.5767 108.5 93.5C103.27 90.2493 91.6724 77.315 78.6379 77.5841C65.6034 77.8531 53.523 94.5339 49.5 97C47.4885 92.5162 42.9138 71.1947 37.6034 68.5044C32.2931 65.8142 12.2356 74.6696 6 75.2301C9.21839 72.8761 21.7931 58.2814 21.3103 52.3628C20.8276 46.4442 8.23563 42.9469 2 41.9381C6.22414 41.9381 17.931 40.5257 30.9655 34.8761Z" fill="#3B5BA7" stroke="white" stroke-width="3"/>
</svg>
